<?xml version="1.0" encoding="utf-8"?>
<!-- Generator: Circuit Diagram, cdlibrary.dll 1.0.0.0 -->
<!DOCTYPE svg PUBLIC "-//W3C//DTD SVG 1.1//EN" "http://www.w3.org/Graphics/SVG/1.1/DTD/svg11.dtd">
<svg version="1.1" width="1220" height="680" xmlns="http://www.w3.org/2000/svg">
	<line x1="30" y1="470" x2="330" y2="470" style="stroke:rgb(0, 0, 0);stroke-linecap:square;stroke-width:2" />
	<line x1="30" y1="160" x2="120" y2="160" style="stroke:rgb(0, 0, 0);stroke-linecap:square;stroke-width:2" />
	<line x1="30" y1="160" x2="30" y2="470" style="stroke:rgb(0, 0, 0);stroke-linecap:square;stroke-width:2" />
	<line x1="240" y1="460" x2="330" y2="460" style="stroke:rgb(0, 0, 0);stroke-linecap:square;stroke-width:2" />
	<line x1="260" y1="450" x2="330" y2="450" style="stroke:rgb(0, 0, 0);stroke-linecap:square;stroke-width:2" />
	<line x1="240" y1="250" x2="240" y2="460" style="stroke:rgb(0, 0, 0);stroke-linecap:square;stroke-width:2" />
	<line x1="260" y1="260" x2="260" y2="450" style="stroke:rgb(0, 0, 0);stroke-linecap:square;stroke-width:2" />
	<line x1="240" y1="250" x2="260" y2="250" style="stroke:rgb(0, 0, 0);stroke-linecap:square;stroke-width:2" />
	<line x1="330" y1="480" x2="330" y2="520" style="stroke:rgb(0, 0, 0);stroke-linecap:square;stroke-width:2" />
	<line x1="430" y1="380" x2="455" y2="380" style="stroke:rgb(0, 0, 0);stroke-linecap:square;stroke-width:2" />
	<line x1="495" y1="380" x2="520" y2="380" style="stroke:rgb(0, 0, 0);stroke-linecap:square;stroke-width:2" />
	<path d="M 455,380 L 457,380 L 460,373 L 466,387 L 472,373 L 478,387 L 484,373 L 490,387 L 493,380 L 495,380" style="fill-opacity:0;fill:rgb(0, 0, 0);stroke:rgb(0, 0, 0);stroke-linecap:square;stroke-width:2" />
	<text x="475" y="363" style="font-family:Arial;font-size:11px;text-anchor:middle" dy=".3em">120 Ω</text>
	<line x1="520" y1="380" x2="520" y2="430" style="stroke:rgb(0, 0, 0);stroke-linecap:square;stroke-width:2" />
	<line x1="520" y1="470" x2="520" y2="520" style="stroke:rgb(0, 0, 0);stroke-linecap:square;stroke-width:2" />
	<path d="M 520,430 L 520,432 L 513,435 L 527,441 L 513,447 L 527,453 L 513,459 L 527,465 L 520,468 L 520,470" style="fill-opacity:0;fill:rgb(0, 0, 0);stroke:rgb(0, 0, 0);stroke-linecap:square;stroke-width:2" />
	<text x="506" y="450" style="font-family:Arial;font-size:11px;text-anchor:end" dy=".3em">82 Ω</text>
	<line x1="330" y1="380" x2="360" y2="380" style="stroke:rgb(0, 0, 0);stroke-linecap:square;stroke-width:2" />
	<line x1="400" y1="380" x2="430" y2="380" style="stroke:rgb(0, 0, 0);stroke-linecap:square;stroke-width:2" />
	<path d="M 360,380 L 362,380 L 365,373 L 371,387 L 377,373 L 383,387 L 389,373 L 395,387 L 398,380 L 400,380" style="fill-opacity:0;fill:rgb(0, 0, 0);stroke:rgb(0, 0, 0);stroke-linecap:square;stroke-width:2" />
	<text x="380" y="363" style="font-family:Arial;font-size:11px;text-anchor:middle" dy=".3em">18 Ω</text>
	<line x1="330" y1="520" x2="520" y2="520" style="stroke:rgb(0, 0, 0);stroke-linecap:square;stroke-width:2" />
	<line x1="120" y1="340" x2="200" y2="340" style="stroke:rgb(0, 0, 0);stroke-linecap:square;stroke-width:2" />
	<line x1="120" y1="160" x2="240" y2="160" style="stroke:rgb(0, 0, 0);stroke-linecap:square;stroke-width:2" />
	<line x1="150" y1="260" x2="150" y2="270" style="stroke:rgb(0, 0, 0);stroke-linecap:square;stroke-width:2" />
	<line x1="150" y1="310" x2="150" y2="320" style="stroke:rgb(0, 0, 0);stroke-linecap:square;stroke-width:2" />
	<path d="M 150,270 L 150,272 L 143,275 L 157,281 L 143,287 L 157,293 L 143,299 L 157,305 L 150,308 L 150,310" style="fill-opacity:0;fill:rgb(0, 0, 0);stroke:rgb(0, 0, 0);stroke-linecap:square;stroke-width:2" />
	<text x="136" y="290" style="font-family:Arial;font-size:11px;text-anchor:end" dy=".3em">10 kΩ</text>
	<line x1="90" y1="260" x2="90" y2="270" style="stroke:rgb(0, 0, 0);stroke-linecap:square;stroke-width:2" />
	<line x1="90" y1="310" x2="90" y2="320" style="stroke:rgb(0, 0, 0);stroke-linecap:square;stroke-width:2" />
	<path d="M 90,270 L 90,272 L 83,275 L 97,281 L 83,287 L 97,293 L 83,299 L 97,305 L 90,308 L 90,310" style="fill-opacity:0;fill:rgb(0, 0, 0);stroke:rgb(0, 0, 0);stroke-linecap:square;stroke-width:2" />
	<text x="76" y="290" style="font-family:Arial;font-size:11px;text-anchor:end" dy=".3em">180 Ω</text>
	<line x1="90" y1="320" x2="150" y2="320" style="stroke:rgb(0, 0, 0);stroke-linecap:square;stroke-width:2" />
	<line x1="120" y1="160" x2="120" y2="180" style="stroke:rgb(0, 0, 0);stroke-linecap:square;stroke-width:2" />
	<line x1="90" y1="180" x2="150" y2="180" style="stroke:rgb(0, 0, 0);stroke-linecap:square;stroke-width:2" />
	<line x1="90" y1="180" x2="90" y2="260" style="stroke:rgb(0, 0, 0);stroke-linecap:square;stroke-width:2" />
	<path d="M 90,227 M 82,227 L 98,227 M 90,227 L 98,212 L 82,212 L 90,227" style="fill-opacity:0;fill:rgb(0, 0, 0);stroke:rgb(0, 0, 0);stroke-linecap:square;stroke-width:2" />
	<path d="M 90,225 M 101,223 L 109,231 M 110,232 L 108,228 L 106,230 L 110,232 L 108,228" style="fill-opacity:0;fill:rgb(0, 0, 0);stroke:rgb(0, 0, 0);stroke-linecap:square;stroke-width:2" />
	<path d="M 90,225 M 94,229 L 102,237 M 103,238 L 101,234 L 99,236 L 103,238 L 101,234" style="fill-opacity:0;fill:rgb(0, 0, 0);stroke:rgb(0, 0, 0);stroke-linecap:square;stroke-width:2" />
	<line x1="150" y1="180" x2="150" y2="207" style="stroke:rgb(0, 0, 0);stroke-linecap:square;stroke-width:2" />
	<line x1="150" y1="233" x2="150" y2="260" style="stroke:rgb(0, 0, 0);stroke-linecap:square;stroke-width:2" />
	<line x1="135.5" y1="212" x2="135.5" y2="228" style="stroke:rgb(0, 0, 0);stroke-linecap:square;stroke-width:3" />
	<line x1="150" y1="207" x2="135.5" y2="216" style="stroke:rgb(0, 0, 0);stroke-linecap:square;stroke-width:2" />
	<line x1="135.5" y1="224" x2="150" y2="233" style="stroke:rgb(0, 0, 0);stroke-linecap:square;stroke-width:2" />
	<ellipse cx="140" cy="220" rx="16" ry="16" style="fill-opacity:0;fill:rgb(0, 0, 0);stroke:rgb(0, 0, 0);stroke-width:2" />
	<path d="M 120,192 L 128,200 M 129,201 L 127,197 L 125,199 L 129,201 L 127,197" style="fill-opacity:0;fill:rgb(0, 0, 0);stroke:rgb(0, 0, 0);stroke-linecap:square;stroke-width:2" />
	<path d="M 114,198 L 122,206 M 123,207 L 121,203 L 119,205 L 123,207 L 121,203" style="fill-opacity:0;fill:rgb(0, 0, 0);stroke:rgb(0, 0, 0);stroke-linecap:square;stroke-width:2" />
	<path d="M 142,227 L 146,225 L 147,232 L 141,228 L 143,227" style="fill-opacity:1;fill:rgb(0, 0, 0);stroke:rgb(0, 0, 0);stroke-linecap:square;stroke-width:2" />
	<line x1="240" y1="30" x2="680" y2="30" style="stroke:rgb(0, 0, 0);stroke-linecap:square;stroke-width:2" />
	<line x1="200" y1="180" x2="200" y2="408" style="stroke:rgb(0, 0, 0);stroke-linecap:square;stroke-width:2" />
	<line x1="192" y1="408" x2="208" y2="408" style="stroke:rgb(0, 0, 0);stroke-linecap:square;stroke-width:2" />
	<line x1="195" y1="414" x2="205" y2="414" style="stroke:rgb(0, 0, 0);stroke-linecap:square;stroke-width:2" />
	<line x1="198" y1="420" x2="202" y2="420" style="stroke:rgb(0, 0, 0);stroke-linecap:square;stroke-width:2" />
	<line x1="240" y1="160" x2="260" y2="160" style="stroke:rgb(0, 0, 0);stroke-linecap:square;stroke-width:2" />
	<line x1="240" y1="30" x2="240" y2="160" style="stroke:rgb(0, 0, 0);stroke-linecap:square;stroke-width:2" />
	<line x1="680" y1="30" x2="680" y2="50" style="stroke:rgb(0, 0, 0);stroke-linecap:square;stroke-width:2" />
	<line x1="200" y1="180" x2="260" y2="180" style="stroke:rgb(0, 0, 0);stroke-linecap:square;stroke-width:2" />
	<line x1="710" y1="140" x2="710" y2="170" style="stroke:rgb(0, 0, 0);stroke-linecap:square;stroke-width:2" />
	<line x1="660" y1="140" x2="660" y2="160" style="stroke:rgb(0, 0, 0);stroke-linecap:square;stroke-width:2" />
	<line x1="620" y1="120" x2="640" y2="120" style="stroke:rgb(0, 0, 0);stroke-linecap:square;stroke-width:2" />
	<line x1="620" y1="120" x2="620" y2="150" style="stroke:rgb(0, 0, 0);stroke-linecap:square;stroke-width:2" />
	<line x1="570" y1="170" x2="710" y2="170" style="stroke:rgb(0, 0, 0);stroke-linecap:square;stroke-width:2" />
	<line x1="570" y1="150" x2="620" y2="150" style="stroke:rgb(0, 0, 0);stroke-linecap:square;stroke-width:2" />
	<line x1="570" y1="160" x2="660" y2="160" style="stroke:rgb(0, 0, 0);stroke-linecap:square;stroke-width:2" />
	<line x1="610" y1="70" x2="640" y2="70" style="stroke:rgb(0, 0, 0);stroke-linecap:square;stroke-width:2" />
	<line x1="610" y1="70" x2="610" y2="140" style="stroke:rgb(0, 0, 0);stroke-linecap:square;stroke-width:2" />
	<line x1="570" y1="140" x2="610" y2="140" style="stroke:rgb(0, 0, 0);stroke-linecap:square;stroke-width:2" />
	<line x1="450" y1="220" x2="450" y2="258" style="stroke:rgb(0, 0, 0);stroke-linecap:square;stroke-width:2" />
	<line x1="442" y1="258" x2="458" y2="258" style="stroke:rgb(0, 0, 0);stroke-linecap:square;stroke-width:2" />
	<line x1="445" y1="264" x2="455" y2="264" style="stroke:rgb(0, 0, 0);stroke-linecap:square;stroke-width:2" />
	<line x1="448" y1="270" x2="452" y2="270" style="stroke:rgb(0, 0, 0);stroke-linecap:square;stroke-width:2" />
	<line x1="120" y1="320" x2="120" y2="340" style="stroke:rgb(0, 0, 0);stroke-linecap:square;stroke-width:2" />
	<line x1="410" y1="150" x2="450" y2="150" style="stroke:rgb(0, 0, 0);stroke-linecap:square;stroke-width:2" />
	<line x1="410" y1="160" x2="450" y2="160" style="stroke:rgb(0, 0, 0);stroke-linecap:square;stroke-width:2" />
	<line x1="410" y1="140" x2="450" y2="140" style="stroke:rgb(0, 0, 0);stroke-linecap:square;stroke-width:2" />
	<line x1="410" y1="170" x2="450" y2="170" style="stroke:rgb(0, 0, 0);stroke-linecap:square;stroke-width:2" />
	<text x="510" y="120" style="font-family:Arial;font-size:11px;text-anchor:middle" dy=".3em">ULN2803A</text>
	<rect x="460" y="130" width="100" height="100" style="fill-opacity:0;stroke:rgb(0, 0, 0);stroke-width:2" />
	<line x1="450" y1="140" x2="460" y2="140" style="stroke:rgb(0, 0, 0);stroke-linecap:square;stroke-width:2" />
	<text x="464" y="140" style="font-family:Arial;font-size:11px;text-anchor:start" dy=".3em">In 1</text>
	<line x1="560" y1="140" x2="570" y2="140" style="stroke:rgb(0, 0, 0);stroke-linecap:square;stroke-width:2" />
	<text x="556" y="140" style="font-family:Arial;font-size:11px;text-anchor:end" dy=".3em">Out 1</text>
	<line x1="450" y1="150" x2="460" y2="150" style="stroke:rgb(0, 0, 0);stroke-linecap:square;stroke-width:2" />
	<text x="464" y="150" style="font-family:Arial;font-size:11px;text-anchor:start" dy=".3em">In 2</text>
	<line x1="560" y1="150" x2="570" y2="150" style="stroke:rgb(0, 0, 0);stroke-linecap:square;stroke-width:2" />
	<text x="556" y="150" style="font-family:Arial;font-size:11px;text-anchor:end" dy=".3em">Out 2</text>
	<line x1="450" y1="160" x2="460" y2="160" style="stroke:rgb(0, 0, 0);stroke-linecap:square;stroke-width:2" />
	<text x="464" y="160" style="font-family:Arial;font-size:11px;text-anchor:start" dy=".3em">In 3</text>
	<line x1="560" y1="160" x2="570" y2="160" style="stroke:rgb(0, 0, 0);stroke-linecap:square;stroke-width:2" />
	<text x="556" y="160" style="font-family:Arial;font-size:11px;text-anchor:end" dy=".3em">Out 3</text>
	<line x1="450" y1="170" x2="460" y2="170" style="stroke:rgb(0, 0, 0);stroke-linecap:square;stroke-width:2" />
	<text x="464" y="170" style="font-family:Arial;font-size:11px;text-anchor:start" dy=".3em">In 4</text>
	<line x1="560" y1="170" x2="570" y2="170" style="stroke:rgb(0, 0, 0);stroke-linecap:square;stroke-width:2" />
	<text x="556" y="170" style="font-family:Arial;font-size:11px;text-anchor:end" dy=".3em">Out 4</text>
	<line x1="450" y1="180" x2="460" y2="180" style="stroke:rgb(0, 0, 0);stroke-linecap:square;stroke-width:2" />
	<text x="464" y="180" style="font-family:Arial;font-size:11px;text-anchor:start" dy=".3em">In 5</text>
	<line x1="560" y1="180" x2="570" y2="180" style="stroke:rgb(0, 0, 0);stroke-linecap:square;stroke-width:2" />
	<text x="556" y="180" style="font-family:Arial;font-size:11px;text-anchor:end" dy=".3em">Out 5</text>
	<line x1="450" y1="190" x2="460" y2="190" style="stroke:rgb(0, 0, 0);stroke-linecap:square;stroke-width:2" />
	<text x="464" y="190" style="font-family:Arial;font-size:11px;text-anchor:start" dy=".3em">In 6</text>
	<line x1="560" y1="190" x2="570" y2="190" style="stroke:rgb(0, 0, 0);stroke-linecap:square;stroke-width:2" />
	<text x="556" y="190" style="font-family:Arial;font-size:11px;text-anchor:end" dy=".3em">Out 6</text>
	<line x1="450" y1="200" x2="460" y2="200" style="stroke:rgb(0, 0, 0);stroke-linecap:square;stroke-width:2" />
	<text x="464" y="200" style="font-family:Arial;font-size:11px;text-anchor:start" dy=".3em">In 7</text>
	<line x1="560" y1="200" x2="570" y2="200" style="stroke:rgb(0, 0, 0);stroke-linecap:square;stroke-width:2" />
	<text x="556" y="200" style="font-family:Arial;font-size:11px;text-anchor:end" dy=".3em">Out 7</text>
	<line x1="450" y1="210" x2="460" y2="210" style="stroke:rgb(0, 0, 0);stroke-linecap:square;stroke-width:2" />
	<text x="464" y="210" style="font-family:Arial;font-size:11px;text-anchor:start" dy=".3em">In 8</text>
	<line x1="560" y1="210" x2="570" y2="210" style="stroke:rgb(0, 0, 0);stroke-linecap:square;stroke-width:2" />
	<text x="556" y="210" style="font-family:Arial;font-size:11px;text-anchor:end" dy=".3em">Out 8</text>
	<line x1="450" y1="220" x2="460" y2="220" style="stroke:rgb(0, 0, 0);stroke-linecap:square;stroke-width:2" />
	<text x="464" y="220" style="font-family:Arial;font-size:11px;text-anchor:start" dy=".3em">0 V</text>
	<line x1="560" y1="220" x2="570" y2="220" style="stroke:rgb(0, 0, 0);stroke-linecap:square;stroke-width:2" />
	<text x="556" y="220" style="font-family:Arial;font-size:11px;text-anchor:end" dy=".3em">COM</text>
	<line x1="330" y1="380" x2="330" y2="430" style="stroke:rgb(0, 0, 0);stroke-linecap:square;stroke-width:2" />
	<line x1="520" y1="380" x2="570" y2="380" style="stroke:rgb(0, 0, 0);stroke-linecap:square;stroke-width:2" />
	<text x="395" y="410" style="font-family:Arial;font-size:11px;text-anchor:middle" dy=".3em">MCP4527</text>
	<rect x="345" y="420" width="100" height="70" style="fill-opacity:0;stroke:rgb(0, 0, 0);stroke-width:2" />
	<line x1="330" y1="430" x2="345" y2="430" style="stroke:rgb(0, 0, 0);stroke-linecap:square;stroke-width:2" />
	<text x="349" y="430" style="font-family:Arial;font-size:11px;text-anchor:start" dy=".3em">OUT</text>
	<line x1="330" y1="440" x2="345" y2="440" style="stroke:rgb(0, 0, 0);stroke-linecap:square;stroke-width:2" />
	<text x="349" y="440" style="font-family:Arial;font-size:11px;text-anchor:start" dy=".3em">GND</text>
	<line x1="330" y1="450" x2="345" y2="450" style="stroke:rgb(0, 0, 0);stroke-linecap:square;stroke-width:2" />
	<text x="349" y="450" style="font-family:Arial;font-size:11px;text-anchor:start" dy=".3em">SCL</text>
	<line x1="330" y1="460" x2="345" y2="460" style="stroke:rgb(0, 0, 0);stroke-linecap:square;stroke-width:2" />
	<text x="349" y="460" style="font-family:Arial;font-size:11px;text-anchor:start" dy=".3em">SDA</text>
	<line x1="330" y1="470" x2="345" y2="470" style="stroke:rgb(0, 0, 0);stroke-linecap:square;stroke-width:2" />
	<text x="349" y="470" style="font-family:Arial;font-size:11px;text-anchor:start" dy=".3em">VCC</text>
	<line x1="330" y1="480" x2="345" y2="480" style="stroke:rgb(0, 0, 0);stroke-linecap:square;stroke-width:2" />
	<text x="349" y="480" style="font-family:Arial;font-size:11px;text-anchor:start" dy=".3em">GND</text>
	<line x1="1000" y1="430" x2="1040" y2="430" style="stroke:rgb(0, 0, 0);stroke-linecap:square;stroke-width:2" />
	<line x1="950" y1="430" x2="980" y2="430" style="stroke:rgb(0, 0, 0);stroke-linecap:square;stroke-width:2" />
	<line x1="1040" y1="390" x2="1040" y2="430" style="stroke:rgb(0, 0, 0);stroke-linecap:square;stroke-width:2" />
	<line x1="770" y1="430" x2="800" y2="430" style="stroke:rgb(0, 0, 0);stroke-linecap:square;stroke-width:2" />
	<line x1="820" y1="430" x2="930" y2="430" style="stroke:rgb(0, 0, 0);stroke-linecap:square;stroke-width:2" />
	<line x1="690" y1="430" x2="750" y2="430" style="stroke:rgb(0, 0, 0);stroke-linecap:square;stroke-width:2" />
	<line x1="850" y1="390" x2="850" y2="430" style="stroke:rgb(0, 0, 0);stroke-linecap:square;stroke-width:2" />
	<line x1="690" y1="390" x2="690" y2="430" style="stroke:rgb(0, 0, 0);stroke-linecap:square;stroke-width:2" />
	<line x1="1140" y1="490" x2="1180" y2="490" style="stroke:rgb(0, 0, 0);stroke-linecap:square;stroke-width:2" />
	<line x1="810" y1="490" x2="930" y2="490" style="stroke:rgb(0, 0, 0);stroke-linecap:square;stroke-width:2" />
	<line x1="950" y1="490" x2="1120" y2="490" style="stroke:rgb(0, 0, 0);stroke-linecap:square;stroke-width:2" />
	<line x1="990" y1="430" x2="990" y2="510" style="stroke:rgb(0, 0, 0);stroke-linecap:square;stroke-width:2" />
	<line x1="1180" y1="420" x2="1180" y2="490" style="stroke:rgb(0, 0, 0);stroke-linecap:square;stroke-width:2" />
	<line x1="810" y1="440" x2="810" y2="490" style="stroke:rgb(0, 0, 0);stroke-linecap:square;stroke-width:2" />
	<line x1="1180" y1="280" x2="1180" y2="330" style="stroke:rgb(0, 0, 0);stroke-linecap:square;stroke-width:2" />
	<path d="M 1180,312 M 1172,312 L 1188,312 M 1180,312 L 1188,297 L 1172,297 L 1180,312" style="fill-opacity:0;fill:rgb(0, 0, 0);stroke:rgb(0, 0, 0);stroke-linecap:square;stroke-width:2" />
	<path d="M 1180,310 M 1191,308 L 1199,316 M 1200,317 L 1198,313 L 1196,315 L 1200,317 L 1198,313" style="fill-opacity:0;fill:rgb(0, 0, 0);stroke:rgb(0, 0, 0);stroke-linecap:square;stroke-width:2" />
	<path d="M 1180,310 M 1184,314 L 1192,322 M 1193,323 L 1191,319 L 1189,321 L 1193,323 L 1191,319" style="fill-opacity:0;fill:rgb(0, 0, 0);stroke:rgb(0, 0, 0);stroke-linecap:square;stroke-width:2" />
	<line x1="990" y1="280" x2="990" y2="330" style="stroke:rgb(0, 0, 0);stroke-linecap:square;stroke-width:2" />
	<path d="M 990,312 M 982,312 L 998,312 M 990,312 L 998,297 L 982,297 L 990,312" style="fill-opacity:0;fill:rgb(0, 0, 0);stroke:rgb(0, 0, 0);stroke-linecap:square;stroke-width:2" />
	<path d="M 990,310 M 1001,308 L 1009,316 M 1010,317 L 1008,313 L 1006,315 L 1010,317 L 1008,313" style="fill-opacity:0;fill:rgb(0, 0, 0);stroke:rgb(0, 0, 0);stroke-linecap:square;stroke-width:2" />
	<path d="M 990,310 M 994,314 L 1002,322 M 1003,323 L 1001,319 L 999,321 L 1003,323 L 1001,319" style="fill-opacity:0;fill:rgb(0, 0, 0);stroke:rgb(0, 0, 0);stroke-linecap:square;stroke-width:2" />
	<rect x="275" y="75" width="120" height="195" style="fill-opacity:0;stroke:rgb(0, 0, 0);stroke-width:2" />
	<text x="311" y="105" style="font-family:Arial;font-size:11px;text-anchor:start" dy=".3em">ARDUINO</text>
	<text x="318" y="115" style="font-family:Arial;font-size:11px;text-anchor:start" dy=".3em">UNO r3</text>
	<line x1="260" y1="130" x2="275" y2="130" style="stroke:rgb(0, 0, 0);stroke-linecap:square;stroke-width:2" />
	<line x1="260" y1="140" x2="275" y2="140" style="stroke:rgb(0, 0, 0);stroke-linecap:square;stroke-width:2" />
	<line x1="260" y1="150" x2="275" y2="150" style="stroke:rgb(0, 0, 0);stroke-linecap:square;stroke-width:2" />
	<line x1="260" y1="160" x2="275" y2="160" style="stroke:rgb(0, 0, 0);stroke-linecap:square;stroke-width:2" />
	<line x1="260" y1="170" x2="275" y2="170" style="stroke:rgb(0, 0, 0);stroke-linecap:square;stroke-width:2" />
	<line x1="260" y1="180" x2="275" y2="180" style="stroke:rgb(0, 0, 0);stroke-linecap:square;stroke-width:2" />
	<line x1="260" y1="190" x2="275" y2="190" style="stroke:rgb(0, 0, 0);stroke-linecap:square;stroke-width:2" />
	<line x1="260" y1="210" x2="275" y2="210" style="stroke:rgb(0, 0, 0);stroke-linecap:square;stroke-width:2" />
	<line x1="260" y1="220" x2="275" y2="220" style="stroke:rgb(0, 0, 0);stroke-linecap:square;stroke-width:2" />
	<line x1="260" y1="230" x2="275" y2="230" style="stroke:rgb(0, 0, 0);stroke-linecap:square;stroke-width:2" />
	<line x1="260" y1="240" x2="275" y2="240" style="stroke:rgb(0, 0, 0);stroke-linecap:square;stroke-width:2" />
	<line x1="260" y1="250" x2="275" y2="250" style="stroke:rgb(0, 0, 0);stroke-linecap:square;stroke-width:2" />
	<line x1="260" y1="260" x2="275" y2="260" style="stroke:rgb(0, 0, 0);stroke-linecap:square;stroke-width:2" />
	<line x1="395" y1="100" x2="410" y2="100" style="stroke:rgb(0, 0, 0);stroke-linecap:square;stroke-width:2" />
	<line x1="395" y1="110" x2="410" y2="110" style="stroke:rgb(0, 0, 0);stroke-linecap:square;stroke-width:2" />
	<line x1="395" y1="120" x2="410" y2="120" style="stroke:rgb(0, 0, 0);stroke-linecap:square;stroke-width:2" />
	<line x1="395" y1="130" x2="410" y2="130" style="stroke:rgb(0, 0, 0);stroke-linecap:square;stroke-width:2" />
	<line x1="395" y1="140" x2="410" y2="140" style="stroke:rgb(0, 0, 0);stroke-linecap:square;stroke-width:2" />
	<line x1="395" y1="150" x2="410" y2="150" style="stroke:rgb(0, 0, 0);stroke-linecap:square;stroke-width:2" />
	<line x1="395" y1="160" x2="410" y2="160" style="stroke:rgb(0, 0, 0);stroke-linecap:square;stroke-width:2" />
	<line x1="395" y1="170" x2="410" y2="170" style="stroke:rgb(0, 0, 0);stroke-linecap:square;stroke-width:2" />
	<line x1="395" y1="190" x2="410" y2="190" style="stroke:rgb(0, 0, 0);stroke-linecap:square;stroke-width:2" />
	<line x1="395" y1="200" x2="410" y2="200" style="stroke:rgb(0, 0, 0);stroke-linecap:square;stroke-width:2" />
	<line x1="395" y1="210" x2="410" y2="210" style="stroke:rgb(0, 0, 0);stroke-linecap:square;stroke-width:2" />
	<line x1="395" y1="220" x2="410" y2="220" style="stroke:rgb(0, 0, 0);stroke-linecap:square;stroke-width:2" />
	<line x1="395" y1="230" x2="410" y2="230" style="stroke:rgb(0, 0, 0);stroke-linecap:square;stroke-width:2" />
	<line x1="395" y1="240" x2="410" y2="240" style="stroke:rgb(0, 0, 0);stroke-linecap:square;stroke-width:2" />
	<line x1="395" y1="250" x2="410" y2="250" style="stroke:rgb(0, 0, 0);stroke-linecap:square;stroke-width:2" />
	<line x1="395" y1="260" x2="410" y2="260" style="stroke:rgb(0, 0, 0);stroke-linecap:square;stroke-width:2" />
	<text x="279" y="130" style="font-family:Arial;font-size:11px;text-anchor:start" dy=".3em">IOREF</text>
	<text x="279" y="140" style="font-family:Arial;font-size:11px;text-anchor:start" dy=".3em">RESET</text>
	<text x="279" y="150" style="font-family:Arial;font-size:11px;text-anchor:start" dy=".3em">3.3V</text>
	<text x="279" y="160" style="font-family:Arial;font-size:11px;text-anchor:start" dy=".3em">5V</text>
	<text x="279" y="170" style="font-family:Arial;font-size:11px;text-anchor:start" dy=".3em">GND</text>
	<text x="279" y="180" style="font-family:Arial;font-size:11px;text-anchor:start" dy=".3em">GND</text>
	<text x="279" y="190" style="font-family:Arial;font-size:11px;text-anchor:start" dy=".3em">Vin</text>
	<text x="279" y="210" style="font-family:Arial;font-size:11px;text-anchor:start" dy=".3em">A0</text>
	<text x="279" y="220" style="font-family:Arial;font-size:11px;text-anchor:start" dy=".3em">A1</text>
	<text x="279" y="230" style="font-family:Arial;font-size:11px;text-anchor:start" dy=".3em">A2</text>
	<text x="279" y="240" style="font-family:Arial;font-size:11px;text-anchor:start" dy=".3em">A3</text>
	<text x="279" y="250" style="font-family:Arial;font-size:11px;text-anchor:start" dy=".3em">A4</text>
	<text x="279" y="260" style="font-family:Arial;font-size:11px;text-anchor:start" dy=".3em">A5</text>
	<text x="391" y="100" style="font-family:Arial;font-size:11px;text-anchor:end" dy=".3em">AREF</text>
	<text x="391" y="110" style="font-family:Arial;font-size:11px;text-anchor:end" dy=".3em">GND</text>
	<text x="391" y="120" style="font-family:Arial;font-size:11px;text-anchor:end" dy=".3em">D13</text>
	<text x="391" y="130" style="font-family:Arial;font-size:11px;text-anchor:end" dy=".3em">D12</text>
	<text x="391" y="140" style="font-family:Arial;font-size:11px;text-anchor:end" dy=".3em">PWM D11</text>
	<text x="391" y="150" style="font-family:Arial;font-size:11px;text-anchor:end" dy=".3em">PWM D10</text>
	<text x="391" y="160" style="font-family:Arial;font-size:11px;text-anchor:end" dy=".3em">PWM   D9</text>
	<text x="391" y="170" style="font-family:Arial;font-size:11px;text-anchor:end" dy=".3em">D8</text>
	<text x="391" y="190" style="font-family:Arial;font-size:11px;text-anchor:end" dy=".3em">D7</text>
	<text x="391" y="200" style="font-family:Arial;font-size:11px;text-anchor:end" dy=".3em">PWM   D6</text>
	<text x="391" y="210" style="font-family:Arial;font-size:11px;text-anchor:end" dy=".3em">PWM   D5</text>
	<text x="391" y="220" style="font-family:Arial;font-size:11px;text-anchor:end" dy=".3em">D4</text>
	<text x="391" y="230" style="font-family:Arial;font-size:11px;text-anchor:end" dy=".3em">PWM   D3</text>
	<text x="391" y="240" style="font-family:Arial;font-size:11px;text-anchor:end" dy=".3em">D2</text>
	<text x="391" y="250" style="font-family:Arial;font-size:11px;text-anchor:end" dy=".3em">TX   D1</text>
	<text x="391" y="260" style="font-family:Arial;font-size:11px;text-anchor:end" dy=".3em">RX   D0</text>
	<path d="M 335,90 M 335,90 c 2,9 15,9 15,0 c 0,-9 -13,-9 -15,0" style="fill-opacity:0;fill:rgb(0, 0, 0);stroke:rgb(0, 0, 0);stroke-linecap:square;stroke-width:2" />
	<path d="M 335,90 M 335,90 c -2,-9 -15,-9 -15,0 c 0,9 13,9 15,0" style="fill-opacity:0;fill:rgb(0, 0, 0);stroke:rgb(0, 0, 0);stroke-linecap:square;stroke-width:2" />
	<line x1="341" y1="90" x2="345" y2="90" style="stroke:rgb(0, 0, 0);stroke-linecap:square;stroke-width:2" />
	<line x1="343" y1="92" x2="343" y2="88" style="stroke:rgb(0, 0, 0);stroke-linecap:square;stroke-width:2" />
	<line x1="329" y1="90" x2="325" y2="90" style="stroke:rgb(0, 0, 0);stroke-linecap:square;stroke-width:2" />
	<line x1="1180" y1="330" x2="1180" y2="362" style="stroke:rgb(0, 0, 0);stroke-linecap:square;stroke-width:2" />
	<line x1="1180" y1="389" x2="1180" y2="420" style="stroke:rgb(0, 0, 0);stroke-linecap:square;stroke-width:2" />
	<line x1="1155" y1="362" x2="1155" y2="390" style="stroke:rgb(0, 0, 0);stroke-linecap:square;stroke-width:2" />
	<line x1="1140" y1="390" x2="1155" y2="390" style="stroke:rgb(0, 0, 0);stroke-linecap:square;stroke-width:2" />
	<line x1="1162" y1="360" x2="1162" y2="365" style="stroke:rgb(0, 0, 0);stroke-linecap:square;stroke-width:4" />
	<line x1="1162" y1="373" x2="1162" y2="378" style="stroke:rgb(0, 0, 0);stroke-linecap:square;stroke-width:4" />
	<line x1="1162" y1="386" x2="1162" y2="391" style="stroke:rgb(0, 0, 0);stroke-linecap:square;stroke-width:4" />
	<line x1="1162" y1="362" x2="1180" y2="362" style="stroke:rgb(0, 0, 0);stroke-linecap:square;stroke-width:2" />
	<line x1="1162" y1="389" x2="1180" y2="389" style="stroke:rgb(0, 0, 0);stroke-linecap:square;stroke-width:2" />
	<line x1="1180" y1="398" x2="1190" y2="398" style="stroke:rgb(0, 0, 0);stroke-linecap:square;stroke-width:2" />
	<ellipse cx="1180" cy="398" rx="2" ry="2" style="fill-opacity:1;fill:rgb(0, 0, 0);stroke:rgb(0, 0, 0);stroke-width:2" />
	<line x1="1190" y1="376" x2="1190" y2="398" style="stroke:rgb(0, 0, 0);stroke-linecap:square;stroke-width:2" />
	<line x1="1162" y1="376" x2="1190" y2="376" style="stroke:rgb(0, 0, 0);stroke-linecap:square;stroke-width:2" />
	<path d="M 1165,376 L 1169,379 L 1169,373 L 1165,376 L 1167,378" style="fill-opacity:1;fill:rgb(0, 0, 0);stroke:rgb(0, 0, 0);stroke-linecap:square;stroke-width:2" />
	<line x1="990" y1="330" x2="990" y2="362" style="stroke:rgb(0, 0, 0);stroke-linecap:square;stroke-width:2" />
	<line x1="990" y1="389" x2="990" y2="430" style="stroke:rgb(0, 0, 0);stroke-linecap:square;stroke-width:2" />
	<line x1="965" y1="362" x2="965" y2="390" style="stroke:rgb(0, 0, 0);stroke-linecap:square;stroke-width:2" />
	<line x1="950" y1="390" x2="965" y2="390" style="stroke:rgb(0, 0, 0);stroke-linecap:square;stroke-width:2" />
	<line x1="972" y1="360" x2="972" y2="365" style="stroke:rgb(0, 0, 0);stroke-linecap:square;stroke-width:4" />
	<line x1="972" y1="373" x2="972" y2="378" style="stroke:rgb(0, 0, 0);stroke-linecap:square;stroke-width:4" />
	<line x1="972" y1="386" x2="972" y2="391" style="stroke:rgb(0, 0, 0);stroke-linecap:square;stroke-width:4" />
	<line x1="972" y1="362" x2="990" y2="362" style="stroke:rgb(0, 0, 0);stroke-linecap:square;stroke-width:2" />
	<line x1="972" y1="389" x2="990" y2="389" style="stroke:rgb(0, 0, 0);stroke-linecap:square;stroke-width:2" />
	<line x1="990" y1="398" x2="1000" y2="398" style="stroke:rgb(0, 0, 0);stroke-linecap:square;stroke-width:2" />
	<ellipse cx="990" cy="398" rx="2" ry="2" style="fill-opacity:1;fill:rgb(0, 0, 0);stroke:rgb(0, 0, 0);stroke-width:2" />
	<line x1="1000" y1="376" x2="1000" y2="398" style="stroke:rgb(0, 0, 0);stroke-linecap:square;stroke-width:2" />
	<line x1="972" y1="376" x2="1000" y2="376" style="stroke:rgb(0, 0, 0);stroke-linecap:square;stroke-width:2" />
	<path d="M 975,376 L 979,379 L 979,373 L 975,376 L 977,378" style="fill-opacity:1;fill:rgb(0, 0, 0);stroke:rgb(0, 0, 0);stroke-linecap:square;stroke-width:2" />
	<text x="760" y="615" style="font-family:Arial;font-size:12px;text-anchor:middle" dy="1em"></text>
	<line x1="760" y1="540" x2="760" y2="607" style="stroke:rgb(0, 0, 0);stroke-linecap:square;stroke-width:2" />
	<ellipse cx="760" cy="610" rx="3" ry="3" style="fill-opacity:0;fill:rgb(0, 0, 0);stroke:rgb(0, 0, 0);stroke-width:2" />
	<text x="940" y="615" style="font-family:Arial;font-size:12px;text-anchor:middle" dy="1em"></text>
	<line x1="940" y1="540" x2="940" y2="607" style="stroke:rgb(0, 0, 0);stroke-linecap:square;stroke-width:2" />
	<ellipse cx="940" cy="610" rx="3" ry="3" style="fill-opacity:0;fill:rgb(0, 0, 0);stroke:rgb(0, 0, 0);stroke-width:2" />
	<text x="1130" y="615" style="font-family:Arial;font-size:12px;text-anchor:middle" dy="1em"></text>
	<line x1="1130" y1="520" x2="1130" y2="607" style="stroke:rgb(0, 0, 0);stroke-linecap:square;stroke-width:2" />
	<ellipse cx="1130" cy="610" rx="3" ry="3" style="fill-opacity:0;fill:rgb(0, 0, 0);stroke:rgb(0, 0, 0);stroke-width:2" />
	<line x1="940" y1="390" x2="940" y2="520" style="stroke:rgb(0, 0, 0);stroke-linecap:square;stroke-width:2" />
	<path d="M 940,462 M 932,462 L 948,462 M 940,462 L 948,447 L 932,447 L 940,462" style="fill-opacity:0;fill:rgb(0, 0, 0);stroke:rgb(0, 0, 0);stroke-linecap:square;stroke-width:2" />
	<line x1="1130" y1="390" x2="1130" y2="520" style="stroke:rgb(0, 0, 0);stroke-linecap:square;stroke-width:2" />
	<path d="M 1130,462 M 1122,462 L 1138,462 M 1130,462 L 1138,447 L 1122,447 L 1130,462" style="fill-opacity:0;fill:rgb(0, 0, 0);stroke:rgb(0, 0, 0);stroke-linecap:square;stroke-width:2" />
	<line x1="760" y1="390" x2="760" y2="520" style="stroke:rgb(0, 0, 0);stroke-linecap:square;stroke-width:2" />
	<path d="M 760,462 M 752,462 L 768,462 M 760,462 L 768,447 L 752,447 L 760,462" style="fill-opacity:0;fill:rgb(0, 0, 0);stroke:rgb(0, 0, 0);stroke-linecap:square;stroke-width:2" />
	<line x1="850" y1="390" x2="880" y2="390" style="stroke:rgb(0, 0, 0);stroke-linecap:square;stroke-width:2" />
	<line x1="920" y1="390" x2="950" y2="390" style="stroke:rgb(0, 0, 0);stroke-linecap:square;stroke-width:2" />
	<path d="M 880,390 L 882,390 L 885,383 L 891,397 L 897,383 L 903,397 L 909,383 L 915,397 L 918,390 L 920,390" style="fill-opacity:0;fill:rgb(0, 0, 0);stroke:rgb(0, 0, 0);stroke-linecap:square;stroke-width:2" />
	<text x="900" y="373" style="font-family:Arial;font-size:11px;text-anchor:middle" dy=".3em">3.3 kΩ</text>
	<line x1="1040" y1="390" x2="1070" y2="390" style="stroke:rgb(0, 0, 0);stroke-linecap:square;stroke-width:2" />
	<line x1="1110" y1="390" x2="1140" y2="390" style="stroke:rgb(0, 0, 0);stroke-linecap:square;stroke-width:2" />
	<path d="M 1070,390 L 1072,390 L 1075,383 L 1081,397 L 1087,383 L 1093,397 L 1099,383 L 1105,397 L 1108,390 L 1110,390" style="fill-opacity:0;fill:rgb(0, 0, 0);stroke:rgb(0, 0, 0);stroke-linecap:square;stroke-width:2" />
	<text x="1090" y="373" style="font-family:Arial;font-size:11px;text-anchor:middle" dy=".3em">3.3 kΩ</text>
	<line x1="690" y1="390" x2="710" y2="390" style="stroke:rgb(0, 0, 0);stroke-linecap:square;stroke-width:2" />
	<line x1="750" y1="390" x2="770" y2="390" style="stroke:rgb(0, 0, 0);stroke-linecap:square;stroke-width:2" />
	<path d="M 710,390 L 712,390 L 715,383 L 721,397 L 727,383 L 733,397 L 739,383 L 745,397 L 748,390 L 750,390" style="fill-opacity:0;fill:rgb(0, 0, 0);stroke:rgb(0, 0, 0);stroke-linecap:square;stroke-width:2" />
	<text x="730" y="373" style="font-family:Arial;font-size:11px;text-anchor:middle" dy=".3em">3.3 kΩ</text>
	<line x1="520" y1="520" x2="520" y2="598" style="stroke:rgb(0, 0, 0);stroke-linecap:square;stroke-width:2" />
	<line x1="512" y1="598" x2="528" y2="598" style="stroke:rgb(0, 0, 0);stroke-linecap:square;stroke-width:2" />
	<line x1="515" y1="604" x2="525" y2="604" style="stroke:rgb(0, 0, 0);stroke-linecap:square;stroke-width:2" />
	<line x1="518" y1="610" x2="522" y2="610" style="stroke:rgb(0, 0, 0);stroke-linecap:square;stroke-width:2" />
	<text x="990" y="145" style="font-family:Arial;font-size:12px;text-anchor:middle" dy="-0.3em">+12 V</text>
	<line x1="990" y1="153" x2="990" y2="170" style="stroke:rgb(0, 0, 0);stroke-linecap:square;stroke-width:2" />
	<ellipse cx="990" cy="150" rx="3" ry="3" style="fill-opacity:0;fill:rgb(0, 0, 0);stroke:rgb(0, 0, 0);stroke-width:2" />
	<line x1="990" y1="170" x2="990" y2="201" style="stroke:rgb(0, 0, 0);stroke-linecap:square;stroke-width:2" />
	<line x1="990" y1="249" x2="990" y2="280" style="stroke:rgb(0, 0, 0);stroke-linecap:square;stroke-width:2" />
	<path d="M 990,201 A 1.5,2 90 1 1 990,213 M 990,213 A 1.5,2 90 1 1 990,225 M 990,225 A 1.5,2 90 1 1 990,237 M 990,237 A 1.5,2 90 1 1 990,249" style="fill-opacity:0;fill:rgb(0, 0, 0);stroke:rgb(0, 0, 0);stroke-linecap:square;stroke-width:2" />
	<text x="976" y="225" style="font-family:Arial;font-size:11px;text-anchor:end" dy=".3em">500 µH</text>
	<line x1="810" y1="280" x2="810" y2="330" style="stroke:rgb(0, 0, 0);stroke-linecap:square;stroke-width:2" />
	<path d="M 810,312 M 802,312 L 818,312 M 810,312 L 818,297 L 802,297 L 810,312" style="fill-opacity:0;fill:rgb(0, 0, 0);stroke:rgb(0, 0, 0);stroke-linecap:square;stroke-width:2" />
	<path d="M 810,310 M 821,308 L 829,316 M 830,317 L 828,313 L 826,315 L 830,317 L 828,313" style="fill-opacity:0;fill:rgb(0, 0, 0);stroke:rgb(0, 0, 0);stroke-linecap:square;stroke-width:2" />
	<path d="M 810,310 M 814,314 L 822,322 M 823,323 L 821,319 L 819,321 L 823,323 L 821,319" style="fill-opacity:0;fill:rgb(0, 0, 0);stroke:rgb(0, 0, 0);stroke-linecap:square;stroke-width:2" />
	<line x1="570" y1="530" x2="990" y2="530" style="stroke:rgb(0, 0, 0);stroke-linecap:square;stroke-width:2" />
	<line x1="570" y1="400" x2="570" y2="530" style="stroke:rgb(0, 0, 0);stroke-linecap:square;stroke-width:2" />
	<line x1="690" y1="340" x2="690" y2="358" style="stroke:rgb(0, 0, 0);stroke-linecap:square;stroke-width:2" />
	<line x1="682" y1="358" x2="698" y2="358" style="stroke:rgb(0, 0, 0);stroke-linecap:square;stroke-width:2" />
	<line x1="685" y1="364" x2="695" y2="364" style="stroke:rgb(0, 0, 0);stroke-linecap:square;stroke-width:2" />
	<line x1="688" y1="370" x2="692" y2="370" style="stroke:rgb(0, 0, 0);stroke-linecap:square;stroke-width:2" />
	<line x1="640" y1="340" x2="661" y2="340" style="stroke:rgb(0, 0, 0);stroke-linecap:square;stroke-width:2" />
	<line x1="669" y1="340" x2="690" y2="340" style="stroke:rgb(0, 0, 0);stroke-linecap:square;stroke-width:2" />
	<line x1="661" y1="326" x2="661" y2="354" style="stroke:rgb(0, 0, 0);stroke-linecap:square;stroke-width:2" />
	<line x1="669" y1="326" x2="669" y2="354" style="stroke:rgb(0, 0, 0);stroke-linecap:square;stroke-width:2" />
	<text x="665" y="322" style="font-family:Arial;font-size:11px;text-anchor:middle" dy="-0.3em">100 F</text>
	<text x="640" y="435" style="font-family:Arial;font-size:12px;text-anchor:middle" dy="1em">0 V</text>
	<line x1="640" y1="400" x2="640" y2="427" style="stroke:rgb(0, 0, 0);stroke-linecap:square;stroke-width:2" />
	<ellipse cx="640" cy="430" rx="3" ry="3" style="fill-opacity:0;fill:rgb(0, 0, 0);stroke:rgb(0, 0, 0);stroke-width:2" />
	<text x="640" y="295" style="font-family:Arial;font-size:12px;text-anchor:middle" dy="-0.3em">+12 V</text>
	<line x1="640" y1="303" x2="640" y2="380" style="stroke:rgb(0, 0, 0);stroke-linecap:square;stroke-width:2" />
	<ellipse cx="640" cy="300" rx="3" ry="3" style="fill-opacity:0;fill:rgb(0, 0, 0);stroke:rgb(0, 0, 0);stroke-width:2" />
	<line x1="990" y1="510" x2="990" y2="550" style="stroke:rgb(0, 0, 0);stroke-linecap:square;stroke-width:2" />
	<line x1="990" y1="590" x2="990" y2="630" style="stroke:rgb(0, 0, 0);stroke-linecap:square;stroke-width:2" />
	<path d="M 990,550 L 990,552 L 983,555 L 997,561 L 983,567 L 997,573 L 983,579 L 997,585 L 990,588 L 990,590" style="fill-opacity:0;fill:rgb(0, 0, 0);stroke:rgb(0, 0, 0);stroke-linecap:square;stroke-width:2" />
	<text x="976" y="570" style="font-family:Arial;font-size:11px;text-anchor:end" dy=".3em">2 Ω</text>
	<line x1="810" y1="320" x2="810" y2="362" style="stroke:rgb(0, 0, 0);stroke-linecap:square;stroke-width:2" />
	<line x1="810" y1="389" x2="810" y2="440" style="stroke:rgb(0, 0, 0);stroke-linecap:square;stroke-width:2" />
	<line x1="785" y1="362" x2="785" y2="390" style="stroke:rgb(0, 0, 0);stroke-linecap:square;stroke-width:2" />
	<line x1="770" y1="390" x2="785" y2="390" style="stroke:rgb(0, 0, 0);stroke-linecap:square;stroke-width:2" />
	<line x1="792" y1="360" x2="792" y2="365" style="stroke:rgb(0, 0, 0);stroke-linecap:square;stroke-width:4" />
	<line x1="792" y1="373" x2="792" y2="378" style="stroke:rgb(0, 0, 0);stroke-linecap:square;stroke-width:4" />
	<line x1="792" y1="386" x2="792" y2="391" style="stroke:rgb(0, 0, 0);stroke-linecap:square;stroke-width:4" />
	<line x1="792" y1="362" x2="810" y2="362" style="stroke:rgb(0, 0, 0);stroke-linecap:square;stroke-width:2" />
	<line x1="792" y1="389" x2="810" y2="389" style="stroke:rgb(0, 0, 0);stroke-linecap:square;stroke-width:2" />
	<line x1="810" y1="398" x2="820" y2="398" style="stroke:rgb(0, 0, 0);stroke-linecap:square;stroke-width:2" />
	<ellipse cx="810" cy="398" rx="2" ry="2" style="fill-opacity:1;fill:rgb(0, 0, 0);stroke:rgb(0, 0, 0);stroke-width:2" />
	<line x1="820" y1="376" x2="820" y2="398" style="stroke:rgb(0, 0, 0);stroke-linecap:square;stroke-width:2" />
	<line x1="792" y1="376" x2="820" y2="376" style="stroke:rgb(0, 0, 0);stroke-linecap:square;stroke-width:2" />
	<path d="M 795,376 L 799,379 L 799,373 L 795,376 L 797,378" style="fill-opacity:1;fill:rgb(0, 0, 0);stroke:rgb(0, 0, 0);stroke-linecap:square;stroke-width:2" />
	<line x1="990" y1="630" x2="990" y2="648" style="stroke:rgb(0, 0, 0);stroke-linecap:square;stroke-width:2" />
	<line x1="982" y1="648" x2="998" y2="648" style="stroke:rgb(0, 0, 0);stroke-linecap:square;stroke-width:2" />
	<line x1="985" y1="654" x2="995" y2="654" style="stroke:rgb(0, 0, 0);stroke-linecap:square;stroke-width:2" />
	<line x1="988" y1="660" x2="992" y2="660" style="stroke:rgb(0, 0, 0);stroke-linecap:square;stroke-width:2" />
	<line x1="810" y1="280" x2="1180" y2="280" style="stroke:rgb(0, 0, 0);stroke-linecap:square;stroke-width:2" />
	<line x1="570" y1="380" x2="610" y2="380" style="stroke:rgb(0, 0, 0);stroke-linecap:square;stroke-width:2" />
	<line x1="570" y1="400" x2="610" y2="400" style="stroke:rgb(0, 0, 0);stroke-linecap:square;stroke-width:2" />
	<line x1="654" y1="390" x2="690" y2="390" style="stroke:rgb(0, 0, 0);stroke-linecap:square;stroke-width:2" />
	<path d="M 610,390 L 610,420 L 654,390 L 610,360 L 610,390 M 615,380 L 625,380 M 620,375 L 620,385 M 615,400 L 625,400 M 653,390" style="fill-opacity:0;fill:rgb(0, 0, 0);stroke:rgb(0, 0, 0);stroke-linecap:square;stroke-width:2" />
	<ellipse cx="120" cy="160" rx="2" ry="2" style="fill-opacity:1;fill:rgb(0, 0, 0);stroke:rgb(0, 0, 0);stroke-width:2" />
	<ellipse cx="520" cy="380" rx="2" ry="2" style="fill-opacity:1;fill:rgb(0, 0, 0);stroke:rgb(0, 0, 0);stroke-width:2" />
	<ellipse cx="520" cy="520" rx="2" ry="2" style="fill-opacity:1;fill:rgb(0, 0, 0);stroke:rgb(0, 0, 0);stroke-width:2" />
	<ellipse cx="200" cy="340" rx="2" ry="2" style="fill-opacity:1;fill:rgb(0, 0, 0);stroke:rgb(0, 0, 0);stroke-width:2" />
	<ellipse cx="240" cy="160" rx="2" ry="2" style="fill-opacity:1;fill:rgb(0, 0, 0);stroke:rgb(0, 0, 0);stroke-width:2" />
	<ellipse cx="120" cy="320" rx="2" ry="2" style="fill-opacity:1;fill:rgb(0, 0, 0);stroke:rgb(0, 0, 0);stroke-width:2" />
	<ellipse cx="120" cy="180" rx="2" ry="2" style="fill-opacity:1;fill:rgb(0, 0, 0);stroke:rgb(0, 0, 0);stroke-width:2" />
	<ellipse cx="850" cy="430" rx="2" ry="2" style="fill-opacity:1;fill:rgb(0, 0, 0);stroke:rgb(0, 0, 0);stroke-width:2" />
	<ellipse cx="690" cy="390" rx="2" ry="2" style="fill-opacity:1;fill:rgb(0, 0, 0);stroke:rgb(0, 0, 0);stroke-width:2" />
	<ellipse cx="990" cy="280" rx="2" ry="2" style="fill-opacity:1;fill:rgb(0, 0, 0);stroke:rgb(0, 0, 0);stroke-width:2" />
	<ellipse cx="940" cy="390" rx="2" ry="2" style="fill-opacity:1;fill:rgb(0, 0, 0);stroke:rgb(0, 0, 0);stroke-width:2" />
	<ellipse cx="1130" cy="390" rx="2" ry="2" style="fill-opacity:1;fill:rgb(0, 0, 0);stroke:rgb(0, 0, 0);stroke-width:2" />
	<ellipse cx="760" cy="390" rx="2" ry="2" style="fill-opacity:1;fill:rgb(0, 0, 0);stroke:rgb(0, 0, 0);stroke-width:2" />
	<ellipse cx="990" cy="530" rx="2" ry="2" style="fill-opacity:1;fill:rgb(0, 0, 0);stroke:rgb(0, 0, 0);stroke-width:2" />
	<ellipse cx="640" cy="340" rx="2" ry="2" style="fill-opacity:1;fill:rgb(0, 0, 0);stroke:rgb(0, 0, 0);stroke-width:2" />
</svg>