<?xml version="1.0" encoding="utf-8"?>
<!-- Generator: Circuit Diagram, cdlibrary.dll 1.0.0.0 -->
<!DOCTYPE svg PUBLIC "-//W3C//DTD SVG 1.1//EN" "http://www.w3.org/Graphics/SVG/1.1/DTD/svg11.dtd">
<svg version="1.1" width="760" height="380" xmlns="http://www.w3.org/2000/svg">
	<line x1="150" y1="240" x2="150" y2="270" style="stroke:rgb(0, 0, 0);stroke-linecap:square;stroke-width:2" />
	<line x1="150" y1="310" x2="150" y2="340" style="stroke:rgb(0, 0, 0);stroke-linecap:square;stroke-width:2" />
	<path d="M 150,270 L 150,272 L 143,275 L 157,281 L 143,287 L 157,293 L 143,299 L 157,305 L 150,308 L 150,310" style="fill-opacity:0;fill:rgb(0, 0, 0);stroke:rgb(0, 0, 0);stroke-linecap:square;stroke-width:2" />
	<text x="136" y="290" style="font-family:Arial;font-size:11px;text-anchor:end" dy=".3em">5 kΩ</text>
	<path d="M 150,270 M 166,284 L 160,290 L 166,296 M 161,290 L 179,290" style="fill-opacity:0;fill:rgb(0, 0, 0);stroke:rgb(0, 0, 0);stroke-linecap:square;stroke-width:2" />
	<line x1="50" y1="30" x2="50" y2="130" style="stroke:rgb(0, 0, 0);stroke-linecap:square;stroke-width:2" />
	<line x1="250" y1="30" x2="250" y2="130" style="stroke:rgb(0, 0, 0);stroke-linecap:square;stroke-width:2" />
	<line x1="390" y1="130" x2="390" y2="231" style="stroke:rgb(0, 0, 0);stroke-linecap:square;stroke-width:2" />
	<line x1="390" y1="239" x2="390" y2="340" style="stroke:rgb(0, 0, 0);stroke-linecap:square;stroke-width:2" />
	<line x1="376" y1="231" x2="404" y2="231" style="stroke:rgb(0, 0, 0);stroke-linecap:square;stroke-width:2" />
	<line x1="376" y1="239" x2="404" y2="239" style="stroke:rgb(0, 0, 0);stroke-linecap:square;stroke-width:2" />
	<text x="370" y="235" style="font-family:Arial;font-size:11px;text-anchor:end" dy=".3em">1 µF</text>
	<line x1="250" y1="240" x2="250" y2="286" style="stroke:rgb(0, 0, 0);stroke-linecap:square;stroke-width:2" />
	<line x1="250" y1="294" x2="250" y2="340" style="stroke:rgb(0, 0, 0);stroke-linecap:square;stroke-width:2" />
	<line x1="236" y1="286" x2="264" y2="286" style="stroke:rgb(0, 0, 0);stroke-linecap:square;stroke-width:2" />
	<line x1="236" y1="294" x2="264" y2="294" style="stroke:rgb(0, 0, 0);stroke-linecap:square;stroke-width:2" />
	<text x="230" y="290" style="font-family:Arial;font-size:11px;text-anchor:end" dy=".3em">10 µF</text>
	<line x1="250" y1="240" x2="250" y2="130" style="stroke:rgb(0, 0, 0);stroke-linecap:square;stroke-width:2" />
	<path d="M 250,178 M 242,178 L 258,178 M 250,178 L 258,193 L 242,193 L 250,178" style="fill-opacity:0;fill:rgb(0, 0, 0);stroke:rgb(0, 0, 0);stroke-linecap:square;stroke-width:2" />
	<line x1="250" y1="30" x2="50" y2="30" style="stroke:rgb(0, 0, 0);stroke-linecap:square;stroke-width:2" />
	<path d="M 143,30 M 143,22 L 143,38 M 143,30 L 158,38 L 158,22 L 143,30" style="fill-opacity:0;fill:rgb(0, 0, 0);stroke:rgb(0, 0, 0);stroke-linecap:square;stroke-width:2" />
	<text x="698" y="140" style="font-family:Arial;font-size:12px;text-anchor:start" dy=".3em">+15</text>
	<line x1="650" y1="140" x2="687" y2="140" style="stroke:rgb(0, 0, 0);stroke-linecap:square;stroke-width:2" />
	<ellipse cx="690" cy="140" rx="3" ry="3" style="fill-opacity:0;fill:rgb(0, 0, 0);stroke:rgb(0, 0, 0);stroke-width:2" />
	<line x1="650" y1="140" x2="650" y2="340" style="stroke:rgb(0, 0, 0);stroke-linecap:square;stroke-width:2" />
	<line x1="500" y1="130" x2="540" y2="130" style="stroke:rgb(0, 0, 0);stroke-linecap:square;stroke-width:2" />
	<line x1="540" y1="150" x2="540" y2="340" style="stroke:rgb(0, 0, 0);stroke-linecap:square;stroke-width:2" />
	<line x1="150" y1="240" x2="320" y2="240" style="stroke:rgb(0, 0, 0);stroke-linecap:square;stroke-width:2" />
	<line x1="50" y1="340" x2="410" y2="340" style="stroke:rgb(0, 0, 0);stroke-linecap:square;stroke-width:2" />
	<line x1="150" y1="190" x2="150" y2="240" style="stroke:rgb(0, 0, 0);stroke-linecap:square;stroke-width:2" />
	<line x1="250" y1="130" x2="390" y2="130" style="stroke:rgb(0, 0, 0);stroke-linecap:square;stroke-width:2" />
	<rect x="80" y="90" width="140" height="80" style="fill-opacity:0;stroke:rgb(0, 0, 0);stroke-width:2" />
	<line x1="50" y1="130" x2="80" y2="130" style="stroke:rgb(0, 0, 0);stroke-linecap:square;stroke-width:2" />
	<line x1="150" y1="170" x2="150" y2="190" style="stroke:rgb(0, 0, 0);stroke-linecap:square;stroke-width:2" />
	<line x1="220" y1="130" x2="250" y2="130" style="stroke:rgb(0, 0, 0);stroke-linecap:square;stroke-width:2" />
	<text x="150" y="87" style="font-family:Arial;font-size:11px;text-anchor:middle" dy="-0.3em">IC1</text>
	<text x="150" y="105" style="font-family:Arial;font-size:11px;text-anchor:middle" dy="1em">LM317</text>
	<text x="88" y="130" style="font-family:Arial;font-size:11px;text-anchor:start" dy=".3em">Vin</text>
	<text x="150" y="162" style="font-family:Arial;font-size:11px;text-anchor:middle" dy="-0.3em">Vadj</text>
	<text x="212" y="130" style="font-family:Arial;font-size:11px;text-anchor:end" dy=".3em">Vout</text>
	<text x="77" y="127" style="font-family:Arial;font-size:11px;text-anchor:end" dy="-0.3em">3</text>
	<text x="147" y="173" style="font-family:Arial;font-size:11px;text-anchor:end" dy="1em">1</text>
	<text x="223" y="127" style="font-family:Arial;font-size:11px;text-anchor:start" dy="-0.3em">2</text>
	<line x1="540" y1="130" x2="575" y2="130" style="stroke:rgb(0, 0, 0);stroke-linecap:square;stroke-width:2" />
	<line x1="540" y1="150" x2="575" y2="150" style="stroke:rgb(0, 0, 0);stroke-linecap:square;stroke-width:2" />
	<line x1="619" y1="140" x2="650" y2="140" style="stroke:rgb(0, 0, 0);stroke-linecap:square;stroke-width:2" />
	<path d="M 575,140 L 575,170 L 619,140 L 575,110 L 575,140 M 580,130 L 590,130 M 585,125 L 585,135 M 580,150 L 590,150 M 618,140" style="fill-opacity:0;fill:rgb(0, 0, 0);stroke:rgb(0, 0, 0);stroke-linecap:square;stroke-width:2" />
	<line x1="410" y1="340" x2="441" y2="340" style="stroke:rgb(0, 0, 0);stroke-linecap:square;stroke-width:2" />
	<path d="M 441,340 L 451,340 L 455,335 L 463,345 L 471,335 L 479,345 L 487,335 L 495,345 L 499,340 L 509,340" style="fill-opacity:0;fill:rgb(0, 0, 0);stroke:rgb(0, 0, 0);stroke-linecap:square;stroke-width:2" />
	<line x1="509" y1="340" x2="540" y2="340" style="stroke:rgb(0, 0, 0);stroke-linecap:square;stroke-width:2" />
	<text x="475" y="323" style="font-family:Arial;font-size:11px;text-anchor:middle" dy=".3em">1 MΩ</text>
	<line x1="500" y1="130" x2="500" y2="146" style="stroke:rgb(0, 0, 0);stroke-linecap:square;stroke-width:2" />
	<path d="M 500,146 L 500,156 L 505,160 L 495,168 L 505,176 L 495,184 L 505,192 L 495,200 L 500,204 L 500,214" style="fill-opacity:0;fill:rgb(0, 0, 0);stroke:rgb(0, 0, 0);stroke-linecap:square;stroke-width:2" />
	<line x1="500" y1="214" x2="500" y2="230" style="stroke:rgb(0, 0, 0);stroke-linecap:square;stroke-width:2" />
	<text x="486" y="180" style="font-family:Arial;font-size:11px;text-anchor:end" dy=".3em">1 MΩ</text>
	<line x1="390" y1="130" x2="411" y2="130" style="stroke:rgb(0, 0, 0);stroke-linecap:square;stroke-width:2" />
	<path d="M 411,130 L 421,130 L 425,125 L 433,135 L 441,125 L 449,135 L 457,125 L 465,135 L 469,130 L 479,130" style="fill-opacity:0;fill:rgb(0, 0, 0);stroke:rgb(0, 0, 0);stroke-linecap:square;stroke-width:2" />
	<line x1="479" y1="130" x2="500" y2="130" style="stroke:rgb(0, 0, 0);stroke-linecap:square;stroke-width:2" />
	<text x="445" y="113" style="font-family:Arial;font-size:11px;text-anchor:middle" dy=".3em">1 MΩ</text>
	<line x1="540" y1="340" x2="561" y2="340" style="stroke:rgb(0, 0, 0);stroke-linecap:square;stroke-width:2" />
	<path d="M 561,340 L 571,340 L 575,335 L 583,345 L 591,335 L 599,345 L 607,335 L 615,345 L 619,340 L 629,340" style="fill-opacity:0;fill:rgb(0, 0, 0);stroke:rgb(0, 0, 0);stroke-linecap:square;stroke-width:2" />
	<line x1="629" y1="340" x2="650" y2="340" style="stroke:rgb(0, 0, 0);stroke-linecap:square;stroke-width:2" />
	<text x="595" y="323" style="font-family:Arial;font-size:11px;text-anchor:middle" dy=".3em">1 MΩ</text>
	<line x1="320" y1="130" x2="320" y2="151" style="stroke:rgb(0, 0, 0);stroke-linecap:square;stroke-width:2" />
	<path d="M 320,151 L 320,161 L 325,165 L 315,173 L 325,181 L 315,189 L 325,197 L 315,205 L 320,209 L 320,219" style="fill-opacity:0;fill:rgb(0, 0, 0);stroke:rgb(0, 0, 0);stroke-linecap:square;stroke-width:2" />
	<line x1="320" y1="219" x2="320" y2="240" style="stroke:rgb(0, 0, 0);stroke-linecap:square;stroke-width:2" />
	<text x="306" y="185" style="font-family:Arial;font-size:11px;text-anchor:end" dy=".3em">240 Ω</text>
	<line x1="500" y1="230" x2="500" y2="248" style="stroke:rgb(0, 0, 0);stroke-linecap:square;stroke-width:2" />
	<line x1="492" y1="248" x2="508" y2="248" style="stroke:rgb(0, 0, 0);stroke-linecap:square;stroke-width:2" />
	<line x1="495" y1="254" x2="505" y2="254" style="stroke:rgb(0, 0, 0);stroke-linecap:square;stroke-width:2" />
	<line x1="498" y1="260" x2="502" y2="260" style="stroke:rgb(0, 0, 0);stroke-linecap:square;stroke-width:2" />
	<line x1="50" y1="130" x2="50" y2="219" style="stroke:rgb(0, 0, 0);stroke-linecap:square;stroke-width:2" />
	<ellipse cx="50" cy="235" rx="16" ry="16" style="fill-opacity:0;fill:rgb(0, 0, 0);stroke:rgb(0, 0, 0);stroke-width:2" />
	<line x1="50" y1="251" x2="50" y2="340" style="stroke:rgb(0, 0, 0);stroke-linecap:square;stroke-width:2" />
	<path d="M 50,235 M 50,225 L 50,233 M 46,229 L 54,229 M 46,243 L 54,243" style="fill-opacity:0;fill:rgb(0, 0, 0);stroke:rgb(0, 0, 0);stroke-linecap:square;stroke-width:2" />
	<ellipse cx="150" cy="240" rx="2" ry="2" style="fill-opacity:1;fill:rgb(0, 0, 0);stroke:rgb(0, 0, 0);stroke-width:2" />
	<ellipse cx="150" cy="340" rx="2" ry="2" style="fill-opacity:1;fill:rgb(0, 0, 0);stroke:rgb(0, 0, 0);stroke-width:2" />
	<ellipse cx="50" cy="130" rx="2" ry="2" style="fill-opacity:1;fill:rgb(0, 0, 0);stroke:rgb(0, 0, 0);stroke-width:2" />
	<ellipse cx="250" cy="130" rx="2" ry="2" style="fill-opacity:1;fill:rgb(0, 0, 0);stroke:rgb(0, 0, 0);stroke-width:2" />
	<ellipse cx="390" cy="130" rx="2" ry="2" style="fill-opacity:1;fill:rgb(0, 0, 0);stroke:rgb(0, 0, 0);stroke-width:2" />
	<ellipse cx="390" cy="340" rx="2" ry="2" style="fill-opacity:1;fill:rgb(0, 0, 0);stroke:rgb(0, 0, 0);stroke-width:2" />
	<ellipse cx="250" cy="240" rx="2" ry="2" style="fill-opacity:1;fill:rgb(0, 0, 0);stroke:rgb(0, 0, 0);stroke-width:2" />
	<ellipse cx="250" cy="340" rx="2" ry="2" style="fill-opacity:1;fill:rgb(0, 0, 0);stroke:rgb(0, 0, 0);stroke-width:2" />
	<ellipse cx="650" cy="140" rx="2" ry="2" style="fill-opacity:1;fill:rgb(0, 0, 0);stroke:rgb(0, 0, 0);stroke-width:2" />
	<ellipse cx="500" cy="130" rx="2" ry="2" style="fill-opacity:1;fill:rgb(0, 0, 0);stroke:rgb(0, 0, 0);stroke-width:2" />
	<ellipse cx="540" cy="340" rx="2" ry="2" style="fill-opacity:1;fill:rgb(0, 0, 0);stroke:rgb(0, 0, 0);stroke-width:2" />
	<ellipse cx="320" cy="130" rx="2" ry="2" style="fill-opacity:1;fill:rgb(0, 0, 0);stroke:rgb(0, 0, 0);stroke-width:2" />
</svg>